<svg width="42" height="41" viewBox="0 0 42 41" fill="none" xmlns="http://www.w3.org/2000/svg">
<path d="M37.4776 33.4493C37.4776 33.4493 38.9575 31.0937 34.14 30.1515C28.9761 29.1465 23.7493 29.6804 19.7189 31.4706C15.6886 33.2923 14.5551 32.7269 14.5551 32.7269C14.5551 32.7269 17.011 31.5963 24.4105 33.6692C29.5744 35.1139 34.9901 34.8313 35.8718 34.423C36.7534 34.0147 37.4776 33.4493 37.4776 33.4493Z" fill="#82602B"/>
<path d="M9.7688 23.2729C8.7927 22.4249 6.80901 20.4776 5.76994 17.3054C5.45507 16.3318 4.85682 14.4787 5.17169 12.1859C5.67548 8.38558 8.16296 4.93072 8.16296 4.96213C7.47024 5.49606 1.64514 10.2701 1.80257 17.117C1.86555 20.7289 3.66031 23.9011 3.97519 24.435C4.9198 26.0682 5.89589 27.1046 6.80902 28.0469C10.4615 31.8786 14.3344 33.7945 16.2551 34.7053C18.3962 35.7418 20.254 36.3386 21.1671 36.6212C22.71 37.1237 23.7176 37.3436 25.6383 37.7833C28.3776 38.4115 29.6371 38.5685 31.0226 38.3487C31.3689 38.2858 31.8412 38.1602 32.1876 37.9404C34.0138 36.7783 36.0605 35.1765 37.4459 33.4176V33.3862C33.1007 32.9779 29.3222 32.3183 26.6773 31.6588C23.875 30.9678 21.4505 30.3397 18.4907 28.9577C14.6178 27.2617 11.7525 25.0631 9.7688 23.2729Z" fill="#BB9753"/>
<path d="M17.0424 20.6354C16.0663 21.295 17.0109 22.7711 18.0185 22.2058C18.2389 22.0802 18.4908 21.9545 18.6797 21.8289C20.9783 20.604 25.6384 19.5675 30.9282 20.604C35.9661 21.609 38.4536 21.5462 40.1539 20.9495C41.1615 20.5726 41.9487 19.3477 41.9487 19.3477C41.9487 19.3477 42.2006 17.1491 36.3755 16.5524C31.8728 16.1127 23.3398 16.4896 17.0424 20.6354Z" fill="#236993"/>
<path d="M38.7055 9.83066C38.8 9.5794 38.737 9.32814 38.5796 9.10828C38.1073 8.60576 36.8793 7.69493 34.7697 7.44367C32.5026 7.161 26.772 6.3758 20.1912 8.95125C19.341 9.29673 20.7264 10.5216 21.5766 10.239L20.7264 10.4588C20.7264 10.4588 19.1836 10.239 24.2215 10.6159C28.3148 10.9299 32.7545 12.1863 35.053 11.935C37.0997 11.7151 38.2962 10.9299 38.7055 9.83066Z" fill="#77787B"/>
<path d="M18.7742 38.8831C22.4582 37.7525 24.9771 38.1608 26.3941 38.6005C26.6774 38.6947 28.3148 39.1658 28.2518 39.6369C28.2203 40.0452 26.8664 40.3279 25.355 40.6106C24.7567 40.7362 24.3159 40.799 23.6232 40.8932C20.5375 41.2073 17.9555 40.7362 17.6092 40.6734C17.3888 40.642 15.468 40.2337 13.4844 39.3857C10.8709 38.255 5.17178 34.9886 2.43241 28.2359C0.732105 24.0586 0.858056 20.2583 1.14144 18.1226C1.04698 20.1327 1.01549 26.8225 5.6126 32.1933C8.50941 35.5853 12.3508 37.3756 13.7363 38.0351C14.429 38.3492 16.0663 39.0716 18.2389 39.6055C20.5689 40.1709 22.1433 40.1709 23.0564 40.108C23.9695 40.0452 25.4494 39.8568 25.4494 39.6055C25.4494 39.3228 23.6232 39.0402 23.2139 39.0088C22.0803 38.8203 20.6004 38.7261 18.7742 38.8831Z" fill="#BB9753"/>
<path d="M26.4885 2.41826C26.394 2.48108 25.8272 2.79515 25.7328 3.3919C25.6698 3.7688 25.7957 4.08287 25.8587 4.20851C26.1106 4.77385 26.6144 5.15074 27.2756 5.43341C27.5275 5.55904 28.5351 5.99875 30.9596 6.21861C31.5893 6.28142 32.4395 6.28142 33.4471 6.21861C34.6121 6.15579 35.1789 6.09298 35.3048 5.84171C35.6512 5.05652 32.5969 3.01501 32.408 2.88938C31.9042 2.54389 29.952 1.31899 27.4331 0.785053C26.5514 0.596606 25.4809 0.408159 25.0715 0.345343C24.9771 0.345343 24.0639 0.188304 22.8989 0.125488C22.8359 0.125488 25.5123 0.785053 26.6774 1.09913C27.1812 1.22476 27.8109 1.41321 28.4721 1.66447C28.9129 1.82151 29.1963 1.97855 29.8261 2.26122C30.7707 2.73234 31.243 3.01501 31.6838 3.42331C31.9672 3.70598 32.1246 3.86302 32.0931 4.02006C32.0302 4.45977 30.8022 4.67962 29.952 4.71103C29.0074 4.71103 26.9608 4.49118 26.7403 3.42331C26.5829 2.70093 27.9054 2.04137 28.2832 2.04137C29.5742 2.07277 27.4645 1.91573 26.4885 2.41826Z" fill="#BCBEC0"/>
<path d="M35.6513 10.9299C35.1161 11.0241 34.6123 11.1497 34.0455 11.1497C33.2268 11.1811 32.3767 11.244 31.0542 11.1497C29.0391 10.9927 27.4647 10.71 26.9924 10.6158C23.2454 9.89343 21.3877 9.48512 19.5615 8.10318C18.0816 6.9725 17.7982 6.06167 17.7352 5.49633C17.6093 4.52269 18.0501 3.70608 18.2705 3.32919C18.9947 2.01006 20.2542 1.3819 20.7895 1.13064C21.1358 0.973603 21.4192 0.87938 21.6081 0.785156C20.8209 0.847972 20.1597 1.00501 19.6874 1.16205C19.341 1.25627 18.7743 1.44472 18.0816 1.79021C17.4203 2.13569 16.9165 2.51259 16.5387 2.82667C16.0979 3.20356 15.2477 3.98876 14.9643 5.21366C14.5865 6.78405 15.3107 8.13459 15.6256 8.73134C18.4909 14.1021 29.1335 15.4212 30.33 15.5782C31.8729 15.7981 33.1953 15.8923 34.1714 15.9551C37.9184 16.175 39.5872 15.8609 40.4374 15.6411C40.8152 15.5468 41.1616 15.4212 41.3505 15.2956C41.3505 15.2956 40.7208 12.3746 38.6111 9.17105C38.989 9.7678 37.1312 10.6472 35.6513 10.9299Z" fill="#BCBEC0"/>
<path d="M31.0856 19.6927C20.8209 17.0545 15.1532 13.3483 12.9491 10.2075C10.7765 7.09817 10.9654 1.35054 20.6005 0.0314078C20.632 0.0314078 20.632 0 20.6005 0C18.8687 0.0314078 10.3672 0.596749 8.13159 7.53788C5.07735 17.023 20.6949 24.9064 23.4343 26.0371C26.2052 27.1992 33.2268 30.3714 39.9965 28.5183C40.2484 28.4555 40.4688 28.2042 40.5947 27.9844C42.2636 24.4039 41.9487 19.4414 41.9487 19.2844C41.9487 19.1588 37.8239 21.4201 31.0856 19.6927Z" fill="#4485B7"/>
</svg>
