<svg width="180" height="59" viewBox="0 0 180 59" fill="none" xmlns="http://www.w3.org/2000/svg">
<path d="M5.18453 43.3789H1.35449V53.9077H5.13782C8.82773 53.9077 10.4625 51.9085 10.4625 48.3989C10.5092 44.9782 8.5942 43.3789 5.18453 43.3789ZM5.27794 52.7082H2.84914V44.5339H5.32465C8.0337 44.5339 9.01457 46.0444 9.01457 48.5766C9.01457 52.4416 6.30552 52.7082 5.27794 52.7082Z" fill="white"/>
<path d="M17.3752 50.5758C17.3752 51.953 16.5812 52.9748 14.9931 52.9748C13.9656 52.9748 13.3584 52.3528 13.3584 51.4199V46.2666H12.0505V51.2866C12.0505 52.9304 12.7044 54.0854 14.8063 54.0854C15.974 54.0854 16.8614 53.6412 17.4219 52.7082H17.4686V53.9077H18.683V46.2666H17.3752V50.5758Z" fill="white"/>
<path d="M24.6617 46.0891C23.5407 46.0891 22.5599 46.4445 22.0928 47.2886H22.0461V43.3348H20.7383V53.8636H22.0461V52.8418H22.0928C22.7 53.7303 23.8677 54.0413 24.6617 54.0413C27.0905 54.0413 28.3049 52.2198 28.3049 50.0874C28.3516 47.955 27.0905 46.0891 24.6617 46.0891ZM24.5216 52.975C22.7 52.975 21.9994 51.5979 21.9994 50.0874C21.9994 48.6658 22.7 47.1998 24.4282 47.1998C26.1564 47.1998 26.9037 48.577 26.9037 49.9986C26.9504 51.509 26.3432 52.975 24.5216 52.975Z" fill="white"/>
<path d="M36.1519 52.1307V48.2213C36.1519 46.4443 34.5639 46.1333 33.1626 46.1333C31.3878 46.1333 29.8464 46.7997 29.753 48.6656H31.0608C31.1075 47.555 31.9482 47.1996 33.0692 47.1996C33.91 47.1996 34.8441 47.3773 34.8441 48.4879C34.8441 49.4208 33.583 49.332 32.1351 49.5985C30.7806 49.8651 29.426 50.2205 29.426 51.953C29.426 53.4635 30.6404 54.0855 32.0884 54.0855C33.2094 54.0855 34.1902 53.7301 34.8908 52.886C34.8908 53.7301 35.3112 54.0855 36.0118 54.0855C36.4322 54.0855 36.7124 53.9966 36.946 53.8633V52.886C36.7591 52.9304 36.6657 52.9748 36.5256 52.9748C36.1519 52.9748 36.1519 52.7083 36.1519 52.1307ZM34.8441 51.2422C34.8441 51.953 34.1435 52.9748 32.4153 52.9748C31.6213 52.9748 30.874 52.6639 30.874 51.8642C30.874 50.9313 31.6213 50.6203 32.5087 50.487C33.3962 50.3537 34.377 50.3093 34.8908 49.9539V51.2422H34.8441Z" fill="white"/>
<path d="M39.6081 46.2666H38.3003V53.9077H39.6081V46.2666Z" fill="white"/>
<path d="M39.6081 43.3789H38.3003V44.9338H39.6081V43.3789Z" fill="white"/>
<path d="M50.8646 52.9748C48.2023 52.9748 47.0813 50.9757 47.0813 48.5767C47.0813 46.3999 48.2023 44.3119 50.8179 44.3119C52.3593 44.3119 53.6204 45.0672 53.9007 46.5332H55.3953C55.0683 44.3119 53.1533 43.1124 50.8179 43.1124C47.4083 43.1124 45.5867 45.6003 45.5867 48.6656C45.5867 51.7309 47.2681 54.1299 50.7245 54.1299C53.527 54.1299 55.2552 52.5306 55.5354 49.9095H54.0408C53.9474 51.6865 52.8264 52.9748 50.8646 52.9748Z" fill="white"/>
<path d="M62.4482 50.5758C62.4482 51.953 61.6542 52.9748 60.0661 52.9748C59.0386 52.9748 58.4314 52.3528 58.4314 51.4199V46.2666H57.1235V51.2866C57.1235 52.9304 57.7774 54.0854 59.8793 54.0854C61.047 54.0854 61.9344 53.6412 62.4949 52.7082H62.5416V53.9077H63.8027V46.2666H62.4949V50.5758H62.4482Z" fill="white"/>
<path d="M69.4543 49.51C68.2399 49.2434 66.8386 49.0657 66.8386 48.1772C66.8386 47.422 67.7728 47.1999 68.5668 47.1999C69.4543 47.1999 70.3417 47.5108 70.4351 48.4882H71.743C71.6495 46.6223 70.2016 46.0892 68.4734 46.0892C67.0722 46.0892 65.4841 46.7112 65.4841 48.2661C65.4841 49.7321 66.7919 50.1319 68.0998 50.3985C69.4076 50.665 70.7154 50.8427 70.7154 51.8201C70.7154 52.7974 69.5944 52.9751 68.8004 52.9751C67.7261 52.9751 66.6985 52.6197 66.6518 51.5091H65.344C65.4374 53.375 66.9321 54.0858 68.7537 54.0858C70.3884 54.0858 72.1633 53.5082 72.1633 51.6868C72.0699 50.1764 70.7621 49.7765 69.4543 49.51Z" fill="white"/>
<path d="M75.3396 44.0009H74.0318V46.2666H72.6772V47.3772H74.0318V52.2195C74.0318 53.6412 74.5923 53.8633 75.9468 53.8633H76.9744V52.7527H76.3672C75.5264 52.7527 75.3863 52.6638 75.3863 52.0863V47.3328H76.9744V46.2221H75.3863V44.0009H75.3396Z" fill="white"/>
<path d="M81.8787 46.0892C79.3565 46.0892 78.002 47.8218 78.002 50.0875C78.002 52.3088 79.3565 54.0858 81.8787 54.0858C84.4009 54.0858 85.7554 52.3532 85.7554 50.0875C85.7554 47.8662 84.4009 46.0892 81.8787 46.0892ZM81.8787 52.9751C80.4775 52.9751 79.4032 51.9534 79.4032 50.0875C79.4032 48.2216 80.5242 47.1999 81.8787 47.1999C83.2799 47.1999 84.3542 48.2216 84.3542 50.0875C84.3542 51.9534 83.2332 52.9751 81.8787 52.9751Z" fill="white"/>
<path d="M95.8911 46.0892C94.8635 46.0892 93.9294 46.5779 93.3689 47.3776C93.0419 46.4446 92.1545 46.0892 91.1736 46.0892C90.0526 46.0892 89.1652 46.5335 88.6047 47.3776H88.558V46.2669H87.2969V53.9081H88.6047V49.1546C88.6047 48.577 89.1652 47.1999 90.7533 47.1999C91.9209 47.1999 92.2479 47.9107 92.2479 48.888V53.8636H93.5557V49.1101C93.5557 47.9107 94.3965 47.1554 95.6576 47.1554C96.9654 47.1554 97.1989 47.9107 97.1989 48.8436V53.8192H98.5067V48.2216C98.5534 46.7112 97.4792 46.0892 95.8911 46.0892Z" fill="white"/>
<path d="M104.205 49.51C102.991 49.2434 101.589 49.0657 101.589 48.1772C101.589 47.422 102.524 47.1999 103.318 47.1999C104.205 47.1999 105.092 47.5108 105.186 48.4882H106.494C106.4 46.6223 104.952 46.0892 103.224 46.0892C101.823 46.0892 100.235 46.7112 100.235 48.2661C100.235 49.7321 101.543 50.1319 102.85 50.3985C104.158 50.665 105.466 50.8427 105.466 51.8201C105.466 52.7974 104.345 52.9751 103.551 52.9751C102.477 52.9751 101.449 52.6197 101.403 51.5091H100.095C100.188 53.375 101.683 54.0858 103.504 54.0858C105.139 54.0858 106.914 53.5082 106.914 51.6868C106.821 50.1764 105.513 49.7765 104.205 49.51Z" fill="white"/>
<path d="M6.86614 41.3355C6.86614 40.8468 6.58589 40.5803 6.07211 40.5803C5.55832 40.5803 5.27808 40.8468 5.27808 41.3355C5.27808 41.8242 5.51161 42.0907 6.07211 42.0907C6.6326 42.0907 6.86614 41.8242 6.86614 41.3355Z" fill="white"/>
<path d="M4.29705 41.3355C4.29705 40.8468 4.06351 40.5803 3.50302 40.5803C2.98923 40.5803 2.70898 40.8468 2.70898 41.3355C2.70898 41.8242 2.98923 42.0907 3.50302 42.0907C4.06351 42.0907 4.29705 41.8242 4.29705 41.3355Z" fill="white"/>
<path d="M31.7613 31.6507V26.6306L30.4535 27.0749V31.5174C30.4535 32.939 29.7996 33.6054 28.445 33.6054H27.8378H27.5109H24.7551H24.288H21.6724H21.2053H18.6831H18.216H15.6004H15.1333H12.5177H12.0506H9.20143H8.96789H8.12715C7.193 33.6054 6.53909 33.0723 6.11872 32.0061L5.60493 33.2944C5.93189 34.1829 6.6325 34.7605 7.98703 34.7605C7.89361 36.2709 6.44567 36.9817 4.57736 36.9817C2.28868 36.9817 1.26111 35.338 1.26111 33.1611C1.26111 32.1838 1.49465 30.7622 2.14856 29.1185L0.747324 30.0514C0.280247 31.2953 0 32.4503 0 33.4721C0 36.1821 1.63477 38.1812 4.57736 38.1812C7.51995 38.1812 9.29485 36.6707 9.29485 34.716H12.144H12.6111H15.2267H15.6938H18.216H18.6831H21.2987H21.7658H24.3815H24.8485H27.6043H27.9312H28.6319C30.5002 34.7605 31.7613 33.5166 31.7613 31.6507Z" fill="white"/>
<path d="M30.5934 37.8704C30.5934 37.3817 30.3599 37.1152 29.7994 37.1152C29.2856 37.1152 29.0054 37.3817 29.0054 37.8704C29.0054 38.3591 29.2856 38.6256 29.7994 38.6256C30.3132 38.6256 30.5934 38.3591 30.5934 37.8704Z" fill="white"/>
<path d="M36.8991 27.0305C35.9182 27.075 35.0308 27.4748 34.3769 28.1856V29.6961C35.0308 28.8075 35.9182 28.1856 36.8991 28.1856C38.0668 28.1856 38.9542 28.852 38.9542 30.2736V33.6055H34.19L33.396 34.7605H40.262V30.1847C40.262 28.23 38.9075 26.9861 36.8991 27.0305Z" fill="white"/>
<path d="M53.7605 28.63H50.818V28.0081C50.818 27.3417 51.285 26.7642 51.9389 26.7642C52.2659 26.7642 52.5461 26.9419 52.8731 27.2084L53.527 26.5865C53.0599 26.1422 52.5928 25.9645 52.0791 25.9645C50.7245 25.9645 49.9305 26.9419 49.9305 28.1858V28.63H49.0431L48.249 29.4297H53.7138V28.63H53.7605Z" fill="white"/>
<path d="M57.7307 23.2101L56.4696 23.6099V31.5176C56.4696 32.9392 55.769 33.6055 54.4612 33.6055H48.2957C46.9412 33.6055 46.2406 32.9392 46.2406 31.5176V27.7858L44.9795 29.2963V31.6508C44.9795 33.5611 46.1939 34.7606 48.0622 34.7606H54.5546C56.4229 34.7606 57.7774 33.5611 57.7774 31.6508V23.2101H57.7307Z" fill="white"/>
<path d="M62.9621 34.2719C62.9621 35.7824 62.1681 37.1151 60.5333 37.1151C59.8794 37.1151 59.0386 37.0263 58.1045 36.4932L58.7117 37.7815C59.3189 38.0481 60.1596 38.1813 60.6734 38.1813C63.2891 38.1813 64.3166 36.3155 64.2699 34.0054V26.6752L63.0088 27.075V34.2719H62.9621Z" fill="white"/>
<path d="M104.298 37.8704C104.298 37.3817 104.065 37.1152 103.504 37.1152C102.99 37.1152 102.71 37.3817 102.71 37.8704C102.71 38.3591 102.99 38.6256 103.504 38.6256C104.065 38.6256 104.298 38.3591 104.298 37.8704Z" fill="white"/>
<path d="M103.318 26.5419C102.056 26.5419 100.842 27.075 99.6277 28.1413L100.468 28.9853C101.403 28.1413 102.43 27.697 103.318 27.697C106.167 27.697 106.307 30.096 106.354 32.4505V33.65H98.2264H98.0396H97.1521C95.7509 33.65 95.097 32.9392 95.097 31.5176C94.9102 29.474 93.8826 28.2301 91.7807 28.2301C89.4454 28.2301 88.4645 29.785 88.4178 31.9174C88.2777 33.028 87.577 33.65 86.4094 33.65H85.8489H85.5219H82.7661H82.2991H79.6834H79.2164H76.6007H76.1336H73.518H73.0509H70.2952H69.9682H68.4736C67.773 33.65 67.446 33.2946 67.446 32.5393V23.2101L66.1382 23.5655V32.5393C66.1382 34.0054 66.8855 34.7606 68.2867 34.7606H69.9682H70.2952H73.0509H73.518H76.1336H76.6007H79.2164H79.6834H82.2991H82.7661H85.5219H85.8489H86.5495C87.4369 34.7606 88.231 34.4941 88.7915 34.0054C89.3052 35.2493 90.2394 35.9157 91.8275 35.9157C93.3688 35.9157 94.4431 35.1604 94.8635 33.8277C95.5174 34.4496 96.2647 34.7162 97.2923 34.7162H98.0396H98.2264H107.708V32.0062C107.708 29.3407 107.148 26.5419 103.318 26.5419ZM91.7807 34.805C90.3328 34.805 89.7723 33.9165 89.7723 32.0507C89.7723 30.1848 90.3795 29.3407 91.7807 29.3407C93.2287 29.3407 93.7425 30.1848 93.7425 32.0507C93.7425 33.9165 93.182 34.805 91.7807 34.805Z" fill="white"/>
<path d="M173.333 47.7328C173.333 47.7328 175.528 44.4009 168.382 43.0681C160.722 41.6465 152.968 42.4017 146.99 44.934C141.011 47.5106 139.33 46.711 139.33 46.711C139.33 46.711 142.973 45.1117 153.949 48.0437C161.609 50.0873 169.643 49.6875 170.951 49.1099C172.259 48.5324 173.333 47.7328 173.333 47.7328Z" fill="#82602B"/>
<path d="M132.23 33.3391C130.782 32.1396 127.839 29.3853 126.298 24.8983C125.831 23.5212 124.943 20.9001 125.41 17.657C126.158 12.2816 129.848 7.39481 129.848 7.43923C128.82 8.19446 120.179 14.9471 120.413 24.6318C120.506 29.7407 123.168 34.2276 123.635 34.9829C125.037 37.293 126.485 38.759 127.839 40.0918C133.257 45.5116 139.002 48.2216 141.851 49.5099C145.028 50.9759 147.783 51.82 149.138 52.2198C151.427 52.9306 152.921 53.2416 155.77 53.8636C159.834 54.7521 161.702 54.9742 163.757 54.6632C164.271 54.5744 164.972 54.3967 165.486 54.0857C168.195 52.442 171.231 50.1763 173.286 47.6885V47.644C166.84 47.0665 161.235 46.1336 157.312 45.2007C153.155 44.2233 149.558 43.3348 145.168 41.3801C139.423 38.9811 135.172 35.8714 132.23 33.3391Z" fill="#BB9753"/>
<path d="M143.019 29.6074C141.572 30.5403 142.973 32.6283 144.467 31.8286C144.794 31.6509 145.168 31.4732 145.448 31.2955C148.858 29.5629 155.771 28.0969 163.618 29.5629C171.091 30.9845 174.781 30.8957 177.303 30.0516C178.798 29.5185 179.965 27.7859 179.965 27.7859C179.965 27.7859 180.339 24.6762 171.698 23.8321C165.019 23.2101 152.361 23.7432 143.019 29.6074Z" fill="#236993"/>
<path d="M175.154 14.3253C175.295 13.9699 175.201 13.6145 174.968 13.3035C174.267 12.5927 172.445 11.3044 169.316 10.949C165.953 10.5491 157.452 9.43851 147.69 13.0814C146.429 13.5701 148.484 15.3026 149.745 14.9028L148.484 15.2138C148.484 15.2138 146.196 14.9028 153.669 15.4359C159.741 15.8802 166.327 17.6572 169.736 17.3018C172.772 16.9908 174.547 15.8802 175.154 14.3253Z" fill="#77787B"/>
<path d="M145.588 55.4183C151.053 53.819 154.79 54.3965 156.891 55.0184C157.312 55.1517 159.741 55.8181 159.647 56.4845C159.6 57.062 157.592 57.4618 155.35 57.8617C154.463 58.0394 153.809 58.1282 152.781 58.2615C148.204 58.7057 144.374 58.0394 143.86 57.9505C143.533 57.9061 140.684 57.3286 137.741 56.1291C133.865 54.5298 125.41 49.9095 121.347 40.3581C118.825 34.4496 119.011 29.0741 119.432 26.0532C119.292 28.8964 119.245 38.359 126.064 45.9557C130.361 50.7536 136.06 53.2859 138.115 54.2188C139.143 54.663 141.571 55.6848 144.794 56.44C148.251 57.2397 150.586 57.2397 151.94 57.1509C153.295 57.062 155.49 56.7954 155.49 56.44C155.49 56.0402 152.781 55.6404 152.174 55.596C150.492 55.3294 148.297 55.1961 145.588 55.4183Z" fill="#BB9753"/>
<path d="M157.032 3.84062C156.892 3.92947 156.051 4.37372 155.911 5.2178C155.817 5.7509 156.004 6.19516 156.097 6.37286C156.471 7.17251 157.218 7.70561 158.199 8.10544C158.573 8.28314 160.068 8.90509 163.664 9.21607C164.598 9.30492 165.859 9.30492 167.354 9.21607C169.082 9.12722 169.923 9.03837 170.11 8.68297C170.624 7.57234 166.093 4.6847 165.813 4.507C165.065 4.01832 162.169 2.28574 158.433 1.53051C157.125 1.26396 155.537 0.997407 154.93 0.908556C154.79 0.908556 153.435 0.68643 151.707 0.59758C151.614 0.59758 155.584 1.53051 157.312 1.97476C158.059 2.15246 158.993 2.41901 159.974 2.77441C160.628 2.99654 161.048 3.21867 161.983 3.61849C163.384 4.28487 164.085 4.6847 164.738 5.26223C165.159 5.66205 165.392 5.88418 165.346 6.10631C165.252 6.72826 163.431 7.03923 162.169 7.08366C160.768 7.08366 157.732 6.77268 157.405 5.26223C157.172 4.24045 159.133 3.30752 159.694 3.30752C161.609 3.35194 158.48 3.12982 157.032 3.84062Z" fill="#BCBEC0"/>
<path d="M170.624 15.8801C169.83 16.0134 169.082 16.1911 168.242 16.1911C167.027 16.2355 165.766 16.3244 163.804 16.1911C160.815 15.969 158.48 15.5692 157.779 15.4359C152.221 14.4141 149.465 13.8366 146.756 11.8819C144.561 10.2826 144.14 8.99423 144.047 8.19457C143.86 6.81739 144.514 5.66234 144.841 5.12923C145.915 3.26338 147.784 2.37487 148.578 2.01947C149.091 1.79734 149.512 1.66407 149.792 1.53079C148.624 1.61964 147.643 1.84177 146.943 2.06389C146.429 2.19717 145.588 2.46372 144.561 2.9524C143.58 3.44108 142.833 3.97418 142.272 4.41843C141.618 4.95153 140.357 6.06216 139.937 7.79475C139.376 10.016 140.45 11.9263 140.917 12.7704C145.168 20.3671 160.955 22.2329 162.73 22.4551C165.019 22.766 166.98 22.8993 168.428 22.9882C173.987 23.2991 176.462 22.8549 177.723 22.5439C178.284 22.4106 178.797 22.2329 179.078 22.0552C179.078 22.0552 178.144 17.9237 175.014 13.3923C175.575 14.2364 172.819 15.4803 170.624 15.8801Z" fill="#BCBEC0"/>
<path d="M163.851 28.2746C148.624 24.5429 140.217 19.3007 136.947 14.8582C133.725 10.4601 134.005 2.33028 148.297 0.464423C148.344 0.464423 148.344 0.419998 148.297 0.419998C145.728 0.464423 133.117 1.26408 129.801 11.082C125.27 24.4985 148.437 35.6492 152.501 37.2485C156.611 38.8922 167.027 43.3792 177.069 40.7581C177.443 40.6692 177.77 40.3138 177.957 40.0029C180.432 34.9384 179.965 27.9192 179.965 27.6971C179.965 27.5194 173.846 30.718 163.851 28.2746Z" fill="#4485B7"/>
</svg>
