<svg width="16" height="16" viewBox="0 0 16 16" fill="none" xmlns="http://www.w3.org/2000/svg">
<path d="M14.2461 13.0534C14.2461 13.0534 14.8236 12.1341 12.9436 11.7664C10.9284 11.3742 8.88865 11.5826 7.31583 12.2812C5.74302 12.9921 5.30066 12.7715 5.30066 12.7715C5.30066 12.7715 6.2591 12.3303 9.14669 13.1392C11.1619 13.703 13.2753 13.5927 13.6194 13.4334C13.9634 13.274 14.2461 13.0534 14.2461 13.0534Z" fill="#82602B"/>
<path d="M3.43287 9.08227C3.05195 8.75134 2.27783 7.99142 1.87234 6.7535C1.74946 6.37354 1.516 5.65039 1.63888 4.75565C1.83548 3.27259 2.8062 1.92435 2.8062 1.93661C2.53587 2.14497 0.262661 4.00799 0.324099 6.67996C0.348674 8.08948 1.04907 9.32741 1.17195 9.53577C1.54058 10.1731 1.92149 10.5776 2.27783 10.9453C3.7032 12.4406 5.21458 13.1883 5.96412 13.5437C6.79968 13.9482 7.52465 14.1811 7.88099 14.2914C8.48308 14.4875 8.87629 14.5733 9.62583 14.7449C10.6949 14.99 11.1864 15.0513 11.727 14.9655C11.8622 14.941 12.0465 14.892 12.1817 14.8062C12.8943 14.3527 13.693 13.7276 14.2337 13.0412V13.0289C12.538 12.8696 11.0635 12.6122 10.0313 12.3548C8.93772 12.0852 7.99158 11.84 6.83654 11.3007C5.32516 10.6389 4.20699 9.7809 3.43287 9.08227Z" fill="#BB9753"/>
<path d="M6.27137 8.05268C5.89045 8.31008 6.25908 8.88614 6.65228 8.66552C6.7383 8.61649 6.8366 8.56747 6.91032 8.51844C7.80732 8.04043 9.62589 7.63596 11.6902 8.04043C13.6562 8.43264 14.627 8.40813 15.2905 8.17525C15.6837 8.02817 15.9909 7.55016 15.9909 7.55016C15.9909 7.55016 16.0892 6.69219 13.816 6.45931C12.0588 6.28772 8.72889 6.4348 6.27137 8.05268Z" fill="#236993"/>
<path d="M14.7252 3.83617C14.762 3.73811 14.7375 3.64006 14.676 3.55426C14.4917 3.35815 14.0125 3.00271 13.1892 2.90466C12.3045 2.79435 10.0682 2.48793 7.50004 3.49298C7.16828 3.6278 7.70893 4.10581 8.0407 3.9955L7.70893 4.0813C7.70893 4.0813 7.10684 3.9955 9.07286 4.14258C10.6703 4.26515 12.4028 4.75542 13.2998 4.65737C14.0985 4.57157 14.5654 4.26515 14.7252 3.83617Z" fill="#77787B"/>
<path d="M6.94708 15.174C8.38474 14.7327 9.36774 14.892 9.92069 15.0636C10.0313 15.1004 10.6702 15.2843 10.6457 15.4681C10.6334 15.6275 10.105 15.7378 9.5152 15.8481C9.28173 15.8971 9.10971 15.9216 8.83938 15.9584C7.63519 16.081 6.6276 15.8971 6.49244 15.8726C6.40643 15.8603 5.65688 15.701 4.88276 15.3701C3.86289 14.9288 1.63882 13.6541 0.569801 11.0189C-0.0937308 9.38878 -0.0445791 7.90572 0.0660096 7.07227C0.0291467 7.8567 0.0168587 10.4674 1.81085 12.5633C2.94131 13.887 4.44041 14.5856 4.98106 14.843C5.25139 14.9656 5.89035 15.2475 6.73819 15.4559C7.64748 15.6765 8.26186 15.6765 8.6182 15.652C8.97454 15.6275 9.55206 15.5539 9.55206 15.4559C9.55206 15.3455 8.83937 15.2352 8.67964 15.223C8.23728 15.1494 7.65977 15.1127 6.94708 15.174Z" fill="#BB9753"/>
<path d="M9.95762 0.943568C9.92075 0.968082 9.69957 1.09065 9.66271 1.32353C9.63813 1.47061 9.68729 1.59317 9.71186 1.6422C9.81016 1.86282 10.0068 2.0099 10.2648 2.12021C10.3631 2.16924 10.7563 2.34083 11.7025 2.42663C11.9482 2.45114 12.28 2.45114 12.6732 2.42663C13.1278 2.40212 13.349 2.3776 13.3982 2.27955C13.5333 1.97313 12.3414 1.17645 12.2677 1.12742C12.0711 0.992595 11.3093 0.514583 10.3262 0.306219C9.98219 0.232679 9.56441 0.159139 9.40467 0.134625C9.36781 0.134625 9.01146 0.0733416 8.55682 0.0488281C8.53225 0.0488281 9.5767 0.306219 10.0313 0.428786C10.2279 0.477813 10.4737 0.551353 10.7317 0.649407C10.9038 0.710691 11.0143 0.771974 11.2601 0.882285C11.6287 1.06614 11.813 1.17645 11.9851 1.33578C12.0957 1.44609 12.1571 1.50738 12.1448 1.56866C12.1202 1.74025 11.641 1.82605 11.3093 1.83831C10.9406 1.83831 10.1419 1.75251 10.0559 1.33578C9.99448 1.05388 10.5106 0.796488 10.658 0.796488C11.1618 0.808744 10.3385 0.747461 9.95762 0.943568Z" fill="#BCBEC0"/>
<path d="M13.5334 4.26556C13.3245 4.30233 13.1279 4.35136 12.9067 4.35136C12.5872 4.36361 12.2555 4.38813 11.7394 4.35136C10.953 4.29007 10.3386 4.17976 10.1543 4.14299C8.69205 3.86109 7.96708 3.70175 7.2544 3.16245C6.67688 2.72121 6.56629 2.36577 6.54172 2.14515C6.49257 1.76519 6.66459 1.44652 6.75061 1.29943C7.03322 0.784653 7.52473 0.539518 7.73362 0.441464C7.86878 0.380181 7.97937 0.343411 8.0531 0.306641C7.74591 0.331154 7.48787 0.392438 7.30355 0.453721C7.16839 0.490491 6.94721 0.564032 6.67688 0.698855C6.41884 0.833679 6.22224 0.98076 6.07479 1.10333C5.90276 1.25041 5.571 1.55683 5.46041 2.03484C5.31296 2.64767 5.59557 3.17471 5.71845 3.40759C6.83662 5.50349 10.9898 6.01827 11.4568 6.07955C12.0589 6.16535 12.5749 6.20212 12.9559 6.22663C14.4181 6.31243 15.0693 6.18986 15.4011 6.10407C15.5485 6.0673 15.6837 6.01827 15.7574 5.96924C15.7574 5.96924 15.5117 4.82937 14.6884 3.57918C14.8359 3.81206 14.1109 4.15525 13.5334 4.26556Z" fill="#BCBEC0"/>
<path d="M11.7516 7.68496C7.74582 6.6554 5.53405 5.2091 4.67392 3.98343C3.82607 2.77002 3.8998 0.527039 7.65981 0.0122567C7.6721 0.0122567 7.6721 0 7.65981 0C6.98399 0.0122567 3.66633 0.232878 2.79391 2.94161C1.60201 6.64314 7.69667 9.71958 8.7657 10.1608C9.84701 10.6143 12.5872 11.8522 15.229 11.1291C15.3273 11.1046 15.4133 11.0065 15.4625 10.9207C16.1137 9.52347 15.9908 7.58691 15.9908 7.52562C15.9908 7.4766 14.3811 8.35908 11.7516 7.68496Z" fill="#4485B7"/>
</svg>
